<?xml version="1.0" encoding="utf-8"?>
<!-- Generator: Adobe Illustrator 18.1.1, SVG Export Plug-In . SVG Version: 6.00 Build 0)  -->
<!DOCTYPE svg PUBLIC "-//W3C//DTD SVG 1.1//EN" "http://www.w3.org/Graphics/SVG/1.1/DTD/svg11.dtd">
<svg version="1.1" id="Layer_1" xmlns="http://www.w3.org/2000/svg" xmlns:xlink="http://www.w3.org/1999/xlink" x="0px" y="0px"
	 width="207px" height="206px" viewBox="0 0 207 206" style="enable-background:new 0 0 207 206;" xml:space="preserve">
<style type="text/css">
	.st0{fill:#3E492D;}
	.st1{fill:#C99731;}
	.st2{fill:#5A5F47;}
	.st3{fill:none;stroke:#C99731;stroke-width:2.0875;stroke-miterlimit:10;}
</style>
<g>
	<circle class="st0" cx="105" cy="102.7" r="74.4"/>
	<circle class="st1" cx="104.6" cy="102.3" r="55"/>
	<path class="st2" d="M198.6,73.2c-0.8-2.2-3.2-3.5-5.6-3l-33.1,8c-2.1,0.5-3.9,1.9-4.9,3.7c-4.1,7.3-9.6,9.9-13.1,10.9
		c-3.5-13.6-13.8-24.5-27-28.8c1.2-3.5,4-8.4,10.7-12.1c1.9-1,3.3-2.8,3.8-4.9l8.2-33c0.6-2.3-0.7-4.7-2.9-5.6
		C124.7,4.6,96.8-3.9,71,7.9c-1.9,0.9-2.9,3-2.3,5l9.9,35.3c0.6,2.1,2,3.9,3.9,4.9c2.9,1.6,7,4.7,8.6,10.5
		c-13.9,4-24.7,15.1-28.3,29.1c-3.4-1.3-7.7-4.2-11.1-10.2c-1.1-1.9-2.8-3.2-4.9-3.7l-33.1-8c-2.3-0.6-4.7,0.7-5.6,3
		C4.3,83.9-4,111.8,8,137.5c0.9,1.9,3,2.9,5,2.3l35.2-10.2c2.1-0.6,3.9-2,4.9-3.9c1.6-2.9,4.8-7.2,10.7-8.7
		c4.4,12.2,14.5,21.7,27,25.3c-1.1,3.5-3.8,8.5-10.6,12.4c-1.9,1.1-3.2,2.8-3.7,4.9l-7.9,33.1c-0.6,2.3,0.7,4.7,3,5.6
		c10.1,3.8,38.1,12,63.7,0c1.9-0.9,2.9-3,2.3-5l-10.2-35.2c-0.6-2.1-2-3.9-4-4.9c-3-1.6-7.4-4.9-8.8-11.1
		c12.5-3.9,22.4-13.6,26.5-26c7,1.1,10.7,5.9,12.4,9.1c1,1.9,2.8,3.3,4.9,3.9l35.2,10.2c2,0.6,4.1-0.4,5-2.3
		C210.7,111.3,202.4,83.3,198.6,73.2z"/>
	<path class="st3" d="M87.4,164.5c-0.1,4.7,0.8,21.4,15.6,32.3c0.6,0.5,1.5,0.4,2.1,0c3.6-2.7,15.1-13,16.2-33
		c0-0.4-0.4-0.7-0.8-0.5c-3.9,2.5-19.2,13.6-0.5,29c1.3,1,2.8,1.7,4.5,1.9c2.4,0.2,4.8-0.6,1.8-6.2c-4.8-9.2-21.1-14-25.5-19.9
		c-4.5-5.9-1.2-14.1-1.2-14.1s3.8-6.9,8.2,0c4.5,6.9-4,16.8-7.8,18c-3.8,1.2-19.1,11.2-17.4,20.5c1.6,9.3,13.7-8.8,13.7-8.8
		s4.8-11.2-7.8-19.7C88.1,163.6,87.4,163.9,87.4,164.5z"/>
	<path class="st3" d="M121.2,42.3c0.1-4.7-0.7-21.4-15.4-32.4c-0.6-0.5-1.4-0.5-2.1,0c-3.6,2.7-15.2,12.9-16.4,32.9
		c0,0.4,0.4,0.7,0.8,0.5c3.9-2.4,19.3-13.5,0.7-29c-1.3-1.1-2.8-1.7-4.4-1.9c-2.3-0.2-4.8,0.6-1.9,6.2c4.8,9.2,21,14.1,25.4,20.1
		c4.4,5.9,1.1,14.1,1.1,14.1s-3.8,6.9-8.2-0.1s4.1-16.8,7.9-18s19.1-11.1,17.6-20.4s-13.7,8.7-13.7,8.7s-4.9,11.1,7.6,19.7
		C120.6,43.2,121.2,42.9,121.2,42.3z"/>
	<path class="st3" d="M43.6,86.5c-4.7-0.1-21.4,0.7-32.4,15.4c-0.5,0.6-0.5,1.4,0,2.1c2.7,3.6,12.9,15.2,32.9,16.4
		c0.4,0,0.7-0.4,0.5-0.8c-2.4-3.9-13.5-19.3-29-0.7c-1.1,1.3-1.7,2.8-1.9,4.4c-0.2,2.3,0.6,4.8,6.2,1.9c9.2-4.8,14.1-21,20.1-25.4
		s14.1-1.1,14.1-1.1s6.9,3.8-0.1,8.2s-16.8-4.1-18-7.9C34.9,95.3,25,79.9,15.7,81.5s8.7,13.7,8.7,13.7s11.1,4.9,19.7-7.6
		C44.5,87.1,44.2,86.5,43.6,86.5z"/>
	<path class="st3" d="M165.3,122.2c4.7,0,21.4-1,32.1-15.9c0.4-0.6,0.4-1.5,0-2.1c-2.8-3.5-13.2-15-33.1-15.9
		c-0.4,0-0.7,0.5-0.5,0.8c2.5,3.9,13.8,19.1,29,0.2c1-1.3,1.7-2.8,1.8-4.5c0.2-2.4-0.7-4.8-6.2-1.8c-9.1,4.9-13.8,21.2-19.6,25.7
		c-5.8,4.5-14.1,1.3-14.1,1.3s-7-3.7-0.1-8.2s16.9,3.8,18.1,7.6s11.4,19,20.6,17.2c9.3-1.7-9-13.6-9-13.6s-11.2-4.7-19.6,8
		C164.4,121.5,164.7,122.2,165.3,122.2z"/>
</g>
<g>
</g>
<g>
</g>
<g>
</g>
<g>
</g>
<g>
</g>
<g>
</g>
<g>
</g>
<g>
</g>
<g>
</g>
<g>
</g>
<g>
</g>
<g>
</g>
<g>
</g>
<g>
</g>
<g>
</g>
</svg>
