<?xml version="1.0" encoding="utf-8"?>
<!-- Generator: Adobe Illustrator 18.1.1, SVG Export Plug-In . SVG Version: 6.00 Build 0)  -->
<!DOCTYPE svg PUBLIC "-//W3C//DTD SVG 1.1//EN" "http://www.w3.org/Graphics/SVG/1.1/DTD/svg11.dtd">
<svg version="1.1" id="Layer_2" xmlns="http://www.w3.org/2000/svg" xmlns:xlink="http://www.w3.org/1999/xlink" x="0px" y="0px"
	 width="792px" height="612px" viewBox="0 0 792 612" style="enable-background:new 0 0 792 612;" xml:space="preserve">
<style type="text/css">
	.st0{opacity:0.68;fill:#3D492D;}
	.st1{opacity:0.68;fill:#CB9832;}
	.st2{opacity:0.68;fill:#595F46;}
	.st3{opacity:0.68;fill:none;stroke:#CB9832;stroke-width:6;stroke-miterlimit:10;}
</style>
<circle class="st0" cx="403.6" cy="298.9" r="213.9"/>
<circle class="st1" cx="402.4" cy="297.8" r="158.1"/>
<path class="st2" d="M672.6,214.1c-2.4-6.5-9.3-10.1-16-8.5l-95.1,22.9c-6,1.5-11.1,5.4-14.2,10.8c-11.8,20.9-27.7,28.5-37.6,31.2
	c-10-39.1-39.5-70.4-77.6-82.7c3.4-9.9,11.4-24.1,30.7-34.9c5.4-3,9.4-8.1,10.9-14.1L497.4,44c1.7-6.7-1.9-13.6-8.4-16.1
	c-28.9-11.1-109.2-35.5-183.2-1.5c-5.5,2.5-8.3,8.6-6.7,14.4l28.6,101.5c1.7,6,5.7,11.1,11.2,14.2c8.2,4.5,20.1,13.6,24.7,30.1
	c-39.9,11.4-71.1,43.3-81.5,83.7c-9.7-3.9-22.2-12-32-29.3c-3.1-5.4-8.2-9.3-14.2-10.8l-95.1-22.9c-6.7-1.6-13.6,2-16,8.5
	c-10.9,29-34.7,109.4-0.1,183.2c2.5,5.4,8.7,8.2,14.4,6.6l101.3-29.3c6-1.7,11.1-5.8,14.1-11.3c4.5-8.4,13.8-20.7,30.9-25.1
	c12.7,35,41.6,62.3,77.7,72.7c-3.2,10-11.1,24.6-30.6,35.6c-5.4,3.1-9.3,8.2-10.8,14.2L299,557.4c-1.6,6.7,2,13.6,8.5,16
	c29,10.8,109.5,34.6,183.2-0.1c5.4-2.6,8.2-8.7,6.5-14.4l-29.4-101.3c-1.7-6-5.8-11.1-11.4-14.1c-8.5-4.6-21.1-14.1-25.4-31.8
	c35.8-11.2,64.3-39.2,76.2-74.7c20.2,3.2,30.8,17,35.7,26.1c3,5.5,8,9.6,14.1,11.3l101.3,29.3c5.8,1.7,11.9-1.1,14.4-6.6
	C707.3,323.5,683.4,243.2,672.6,214.1z"/>
<path class="st3" d="M353,476.5c-0.2,13.4,2.3,61.4,44.9,92.7c1.8,1.3,4.2,1.3,5.9-0.1c10.2-7.8,43.4-37.4,46.6-94.8
	c0.1-1.2-1.3-2-2.3-1.4c-11.3,7.1-55.3,39.2-1.4,83.5c3.7,3,8.1,4.9,12.8,5.3c6.8,0.6,13.8-1.8,5.3-17.9
	c-13.9-26.4-60.5-40.3-73.4-57.2s-3.4-40.6-3.4-40.6s10.8-20,23.7,0s-11.5,48.4-22.3,51.8s-54.8,32.1-50.1,58.9
	c4.7,26.7,39.2-25.4,39.2-25.4s13.8-32.1-22.4-56.6C354.8,473.9,353,474.9,353,476.5z"/>
<path class="st3" d="M450.1,125.5c0.3-13.4-1.9-61.4-44.3-93c-1.8-1.3-4.2-1.3-5.9,0c-10.3,7.7-43.6,37.1-47.2,94.5
	c-0.1,1.2,1.3,2,2.3,1.4c11.3-7,55.6-38.8,2-83.5c-3.6-3-8.1-5-12.8-5.4c-6.8-0.6-13.8,1.7-5.4,17.8c13.7,26.5,60.3,40.7,73,57.7
	s3.1,40.6,3.1,40.6s-11,19.9-23.7-0.2c-12.7-20,11.8-48.3,22.7-51.6s55-31.8,50.5-58.5c-4.6-26.8-39.4,25.1-39.4,25.1
	s-14,32,22,56.7C448.2,128,450,127.1,450.1,125.5z"/>
<path class="st3" d="M227,252.3c-13.4-0.3-61.4,1.9-93,44.3c-1.3,1.8-1.3,4.2,0,5.9c7.7,10.3,37.1,43.6,94.5,47.2
	c1.2,0.1,2-1.3,1.4-2.3c-7-11.3-38.8-55.6-83.5-2c-3,3.6-5,8.1-5.4,12.8c-0.6,6.8,1.7,13.8,17.8,5.4c26.5-13.7,40.7-60.3,57.7-73
	s40.6-3.1,40.6-3.1s19.9,11-0.2,23.7c-20,12.7-48.3-11.8-51.6-22.7s-31.8-55-58.5-50.5c-26.8,4.6,25.1,39.4,25.1,39.4s32,14,56.7-22
	C229.6,254.1,228.6,252.3,227,252.3z"/>
<path class="st3" d="M576.7,354.9c13.4,0.1,61.4-2.9,92.3-45.8c1.3-1.8,1.2-4.2-0.1-5.9c-7.9-10.1-37.8-43-95.3-45.7
	c-1.2-0.1-2,1.3-1.4,2.3c7.2,11.2,39.8,54.9,83.5,0.6c3-3.7,4.8-8.1,5.2-12.9c0.5-6.8-1.9-13.7-17.9-5.1
	c-26.2,14.1-39.7,60.9-56.4,74c-16.8,13-40.6,3.8-40.6,3.8s-20.1-10.6-0.2-23.7s48.5,11,52,21.8s32.7,54.5,59.3,49.5
	s-25.8-39-25.8-39s-32.2-13.5-56.3,22.9C574.1,353.1,575.1,354.9,576.7,354.9z"/>
</svg>
