<svg xmlns="http://www.w3.org/2000/svg" width="792" height="612" viewBox="0 0 792 612"><style type="text/css">.st0{opacity:0.68;fill:#3D492D;} .st1{opacity:0.68;fill:#CB9832;} .st2{opacity:0.68;fill:#595F46;} .st3{opacity:0.68;fill:none;stroke:#CB9832;stroke-width:6;stroke-miterlimit:10;}</style><circle class="st0" cx="403.6" cy="298.9" r="213.9"/><circle class="st1" cx="402.4" cy="297.8" r="158.1"/><path class="st2" d="M672.6 214.1c-2.4-6.5-9.3-10.1-16-8.5l-95.1 22.9c-6 1.5-11.1 5.4-14.2 10.8-11.8 20.9-27.7 28.5-37.6 31.2-10-39.1-39.5-70.4-77.6-82.7 3.4-9.9 11.4-24.1 30.7-34.9 5.4-3 9.4-8.1 10.9-14.1l23.7-94.8c1.7-6.7-1.9-13.6-8.4-16.1-28.9-11.1-109.2-35.5-183.2-1.5-5.5 2.5-8.3 8.6-6.7 14.4l28.6 101.5c1.7 6 5.7 11.1 11.2 14.2 8.2 4.5 20.1 13.6 24.7 30.1-39.9 11.4-71.1 43.3-81.5 83.7-9.7-3.9-22.2-12-32-29.3-3.1-5.4-8.2-9.3-14.2-10.8l-95.1-22.9c-6.7-1.6-13.6 2-16 8.5-10.9 29-34.7 109.4-.1 183.2 2.5 5.4 8.7 8.2 14.4 6.6l101.3-29.3c6-1.7 11.1-5.8 14.1-11.3 4.5-8.4 13.8-20.7 30.9-25.1 12.7 35 41.6 62.3 77.7 72.7-3.2 10-11.1 24.6-30.6 35.6-5.4 3.1-9.3 8.2-10.8 14.2l-22.7 95c-1.6 6.7 2 13.6 8.5 16 29 10.8 109.5 34.6 183.2-.1 5.4-2.6 8.2-8.7 6.5-14.4l-29.4-101.3c-1.7-6-5.8-11.1-11.4-14.1-8.5-4.6-21.1-14.1-25.4-31.8 35.8-11.2 64.3-39.2 76.2-74.7 20.2 3.2 30.8 17 35.7 26.1 3 5.5 8 9.6 14.1 11.3l101.3 29.3c5.8 1.7 11.9-1.1 14.4-6.6 34.6-73.6 10.7-153.9-.1-183z"/><path class="st3" d="M353 476.5c-.2 13.4 2.3 61.4 44.9 92.7 1.8 1.3 4.2 1.3 5.9-.1 10.2-7.8 43.4-37.4 46.6-94.8.1-1.2-1.3-2-2.3-1.4-11.3 7.1-55.3 39.2-1.4 83.5 3.7 3 8.1 4.9 12.8 5.3 6.8.6 13.8-1.8 5.3-17.9-13.9-26.4-60.5-40.3-73.4-57.2l-3.4-40.6s10.8-20 23.7 0-11.5 48.4-22.3 51.8-54.8 32.1-50.1 58.9c4.7 26.7 39.2-25.4 39.2-25.4s13.8-32.1-22.4-56.6c-1.3-.8-3.1.2-3.1 1.8zM450.1 125.5c.3-13.4-1.9-61.4-44.3-93-1.8-1.3-4.2-1.3-5.9 0-10.3 7.7-43.6 37.1-47.2 94.5-.1 1.2 1.3 2 2.3 1.4 11.3-7 55.6-38.8 2-83.5-3.6-3-8.1-5-12.8-5.4-6.8-.6-13.8 1.7-5.4 17.8 13.7 26.5 60.3 40.7 73 57.7l3.1 40.6s-11 19.9-23.7-.2c-12.7-20 11.8-48.3 22.7-51.6s55-31.8 50.5-58.5c-4.6-26.8-39.4 25.1-39.4 25.1s-14 32 22 56.7c1.2.9 3 0 3.1-1.6zM227 252.3c-13.4-.3-61.4 1.9-93 44.3-1.3 1.8-1.3 4.2 0 5.9 7.7 10.3 37.1 43.6 94.5 47.2 1.2.1 2-1.3 1.4-2.3-7-11.3-38.8-55.6-83.5-2-3 3.6-5 8.1-5.4 12.8-.6 6.8 1.7 13.8 17.8 5.4 26.5-13.7 40.7-60.3 57.7-73l40.6-3.1s19.9 11-.2 23.7c-20 12.7-48.3-11.8-51.6-22.7s-31.8-55-58.5-50.5c-26.8 4.6 25.1 39.4 25.1 39.4s32 14 56.7-22c1-1.3 0-3.1-1.6-3.1zM576.7 354.9c13.4.1 61.4-2.9 92.3-45.8 1.3-1.8 1.2-4.2-.1-5.9-7.9-10.1-37.8-43-95.3-45.7-1.2-.1-2 1.3-1.4 2.3 7.2 11.2 39.8 54.9 83.5.6 3-3.7 4.8-8.1 5.2-12.9.5-6.8-1.9-13.7-17.9-5.1-26.2 14.1-39.7 60.9-56.4 74-16.8 13-40.6 3.8-40.6 3.8s-20.1-10.6-.2-23.7 48.5 11 52 21.8 32.7 54.5 59.3 49.5l-25.8-39s-32.2-13.5-56.3 22.9c-.9 1.4.1 3.2 1.7 3.2z"/></svg>